<svg width="256" height="256" viewBox="0 0 256 256" fill="none" xmlns="http://www.w3.org/2000/svg">
<circle cx="128" cy="128" r="128" fill="#C5E4E7"/>
<rect x="75" y="40" width="107" height="177" rx="22" fill="#00474B"/>
<rect x="84" y="53" width="88" height="42" rx="10" fill="#F3F9FA"/>
<rect x="84" y="100" width="19" height="18" rx="5" fill="#D9D9D9"/>
<rect x="107" y="100" width="19" height="18" rx="5" fill="#D9D9D9"/>
<rect x="130" y="100" width="19" height="18" rx="5" fill="#D9D9D9"/>
<rect x="153" y="100" width="19" height="18" rx="5" fill="#FF8FD4"/>
<rect x="84" y="123" width="19" height="18" rx="5" fill="#D9D9D9"/>
<rect x="107" y="123" width="19" height="18" rx="5" fill="#D9D9D9"/>
<rect x="130" y="123" width="19" height="18" rx="5" fill="#D9D9D9"/>
<rect x="153" y="123" width="19" height="18" rx="5" fill="#FE6060"/>
<rect x="84" y="146" width="19" height="18" rx="5" fill="#D9D9D9"/>
<rect x="107" y="146" width="19" height="18" rx="5" fill="#D9D9D9"/>
<rect x="130" y="146" width="19" height="18" rx="5" fill="#D9D9D9"/>
<rect x="84" y="169" width="19" height="18" rx="5" fill="#D9D9D9"/>
<rect x="107" y="169" width="19" height="18" rx="5" fill="#D9D9D9"/>
<rect x="130" y="169" width="19" height="18" rx="5" fill="#D9D9D9"/>
<rect x="153" y="146" width="19" height="41" rx="5" fill="#26C2AE"/>
</svg>

